/* XPM */
static char *ZG9vcjI_[] = {
/* columns rows colors chars-per-pixel */
"64 64 256 2 ",
"   c #090A05",
".  c #1E0F0A",
"X  c #1B0904",
"o  c #0E160F",
"O  c #0A180F",
"+  c #16120F",
"@  c #1A120C",
"#  c #1A0F14",
"$  c #0B1814",
"%  c #141413",
"&  c #1B1312",
"*  c #1C1914",
"=  c #161817",
"-  c #260B0C",
";  c #231615",
":  c #2A1D16",
">  c #241E19",
",  c #271C17",
"<  c #33130E",
"1  c #3B230E",
"2  c #2C221B",
"3  c #292218",
"4  c #3D2412",
"5  c #33231A",
"6  c #3A2619",
"7  c #382718",
"8  c #352C23",
"9  c #3C342A",
"0  c #440706",
"q  c #450806",
"w  c #4A0807",
"e  c #570602",
"r  c #5B1703",
"t  c #5C1805",
"y  c #561203",
"u  c #4E1608",
"i  c #620101",
"p  c #6E0502",
"a  c #680A05",
"s  c #710502",
"d  c #7C0101",
"f  c #780C06",
"g  c #771609",
"h  c #6D1C11",
"j  c #771B14",
"k  c #671509",
"l  c #452617",
"z  c #522B16",
"x  c #6F2D1A",
"c  c #483626",
"v  c #583826",
"b  c #47342A",
"n  c #653A27",
"m  c #7A3927",
"M  c #743631",
"N  c #3D4236",
"B  c #474239",
"V  c #584634",
"C  c #4F402D",
"Z  c #68422A",
"A  c #684A37",
"S  c #7B4A37",
"D  c #735136",
"F  c #73584D",
"G  c #7A6349",
"H  c #615651",
"J  c #870704",
"K  c #930202",
"L  c #990103",
"P  c #9A0B09",
"I  c #86130A",
"U  c #99140A",
"Y  c #901614",
"T  c #A30D0C",
"R  c #AA0B0B",
"E  c #A5120C",
"W  c #A30B17",
"Q  c #A70B17",
"!  c #A81313",
"~  c #B40B0F",
"^  c #882717",
"/  c #962517",
"(  c #94351A",
")  c #872C0F",
"_  c #B5291A",
"`  c #88342E",
"'  c #8C3D32",
"]  c #893934",
"[  c #953A36",
"{  c #933027",
"}  c #A5372B",
"|  c #BB392B",
" . c #A23835",
".. c #C9341D",
"X. c #D72C2A",
"o. c #CC322C",
"O. c #C73827",
"+. c #D23127",
"@. c #D8332D",
"#. c #CA3B35",
"$. c #D73835",
"%. c #CD2E2F",
"&. c #E42B2B",
"*. c #E72A29",
"=. c #E8332D",
"-. c #E92D32",
";. c #F42D34",
":. c #E53433",
">. c #EB3333",
",. c #EE3439",
"<. c #E93A35",
"1. c #F23535",
"2. c #F6363A",
"3. c #F42E2D",
"4. c #94491F",
"5. c #88462A",
"6. c #834132",
"7. c #874A35",
"8. c #984C39",
"9. c #86533A",
"0. c #985839",
"q. c #8F4D27",
"w. c #A3473B",
"e. c #B94736",
"r. c #A85738",
"t. c #B04F32",
"y. c #BA6339",
"u. c #CA4537",
"i. c #D9483C",
"p. c #C7593C",
"a. c #CF4D35",
"s. c #EB473C",
"d. c #D4653D",
"f. c #F4693E",
"g. c #A13942",
"h. c #EC3945",
"j. c #DA3843",
"k. c #9A4B45",
"l. c #875744",
"z. c #92584F",
"x. c #AD5642",
"c. c #966549",
"v. c #906954",
"b. c #B97458",
"n. c #B1694A",
"m. c #8A746B",
"M. c #AE7568",
"N. c #C95A43",
"B. c #D65847",
"V. c #D35951",
"C. c #E75C44",
"Z. c #F95C4A",
"A. c #FD5B54",
"S. c #E5554B",
"D. c #D96646",
"F. c #CB6C59",
"G. c #DA6557",
"H. c #C9735B",
"J. c #CF714E",
"K. c #E7664A",
"L. c #FE644C",
"P. c #FA6849",
"I. c #E66653",
"U. c #FD6B52",
"Y. c #F76655",
"T. c #E77657",
"R. c #F2754F",
"E. c #CB7861",
"W. c #D97865",
"Q. c #E27D69",
"!. c #F37064",
"~. c #B19271",
"^. c #9D8660",
"/. c #F5825B",
"(. c #DA8468",
"). c #DC8B75",
"_. c #D99377",
"`. c #CE936C",
"'. c #E58B75",
"]. c #F5896F",
"[. c #E9A478",
"{. c #D29C6F",
"}. c #728581",
"|. c #99968A",
" X c #A69D86",
".X c #B39485",
"XX c #AAA68A",
"oX c #B3A68A",
"OX c #AAA798",
"+X c #B4AC94",
"@X c #B2AEAD",
"#X c #9BA19B",
"$X c #C99A8B",
"%X c #DDA994",
"&X c #DCA896",
"*X c #CDAA92",
"=X c #EDA484",
"-X c #EEA289",
";X c #E8A984",
":X c #F7B39D",
">X c #F8B69D",
",X c #F3B38C",
"<X c #FABAA4",
"1X c #E8BAA7",
"2X c #D7B0A3",
"3X c #DBC69B",
"4X c #FECA99",
"5X c #C9C8A9",
"6X c #DACBAB",
"7X c #D7C9AD",
"8X c #D4CEB3",
"9X c #DBCBB1",
"0X c #D3CFBB",
"qX c #CED2B7",
"wX c #D3D2B3",
"eX c #D7DBBB",
"rX c #DBDCBD",
"tX c #D7D3BA",
"yX c #CDCCB4",
"uX c #F7C5A6",
"iX c #FDD9A9",
"pX c #E2CBB4",
"aX c #E6D4BB",
"sX c #E9D5BD",
"dX c #E1DABE",
"fX c #E4D3B8",
"gX c #FCDCB6",
"hX c #FCD8B9",
"jX c #F2CAAE",
"kX c #DAE0BE",
"lX c #D5E0BE",
"zX c #FDE3AA",
"xX c #FDE3BC",
"cX c #FFE7B9",
"vX c #C9BDC1",
"bX c #DCDCC2",
"nX c #DADBC1",
"mX c #D5D3D3",
"MX c #E7D6C4",
"NX c #E1DAC2",
"BX c #E9DBC3",
"VX c #FEDCC4",
"CX c #FEDECA",
"ZX c #FDD4C5",
"AX c #E6D5D3",
"SX c #DCE1C3",
"DX c #E6E3C6",
"FX c #FEE5C3",
"GX c #FEEAC3",
"HX c #FDE1CB",
"JX c #FFEACB",
"KX c #FBEED1",
"LX c #FCFDFC",
"PX c #FDF7F0",
"IX c #E1DCE2",
"UX c #BEC4A8",
/* pixels */
"rXrXNXrXrXdXeXDXhX&X%X%X*X&X&X&X&X%X&X%X%X%X%X%X%X%X%X%X&X%X%X&X&X&X%X%X%X&X%X%X&X&X&X%X%X%X%X%X%X%X%X%X&X&X1X1XZX9XfXbXkXnXbXBX",
"rXrXrXNXDXrXDXoXj p p p p f p p p p p p s a s s s s s a s s p p p s p p p f p a p p s p s p p p p p p p s p p h M.ZXMXnXkXSXnXNX",
"NXrXwXDXdXtXDXZ s Y I I I d K L K K K K L L K L L L L L K L L K L K K K L L L L L L L L K L K K I I J I I I g g k jXAXnXnXkXSXrX",
"rXrXSXkXNXtXCXS c.KXFXJX_.p T ;.2.@.2.>.>.=.=.=.=.=.1.=.=.>.:.:.:.:.:.:.:.>.:.:.:.:.<.&.<.=.<.C.JXb.i k.KXFXFX>Xy pXMXMXsXkXbXNX",
"rXrXrXeXbXaXCXS } !.'.hX).p K -.-.@.&.-.X.&.&.&.*.=.=.*.&.:.@.*.&.*.*.&.-.&.&.*.*.*.*.*.*.*.&.B.JXb.d / ].Q.iX>Xy pXnXNXBXkXrXNX",
"dXkXSXeXNXaXHX6.~ X._ <X).p J !.S.J.G.G.G.I.G.G.I.D.V.G.G.G.G.K.S.I.I.I.S.I.I.S.K.G.S.S.K.D.K.W.JXE.K R *.+.;X>Xy pXNXBXsXkXkXNX",
"rXrXSXrXNXaXHX6.W $.u.uX).e / CXhXGXcXGXCXFXxXxXxXxXFXFXFXFXFXcXcXcXcXGXcXGXJXFXGXcXGXFXcXxXhXVXGXb.d ! =...[.uXy 9XnXMXBXkXSXdX",
"dXrXkXrXdXaXHX6.! @.#.uX'.i s U I I I f I f I I I f f I g f g g g g g h h h h h h h h z x j I h x h d ~ :.O.;X>Xy pXDXMXsXkXlXNX",
"rXrXSXeXbXfXHX6.! 1.$.>X_.a a s d d J d d d d d J I U U U ^ ) j h k y e u w w w w w 0 < < 0 w q - 0 p ~ <...;X>Xt 9XMXMXMXlXSXrX",
"rXrXkXrXNXaXHX6.E 1.+.uX_.y 5.(.(.).W.W.(.(.W.(.(.(.(.H.b.n.0.9.D Z b b 8 3 > & & . . - % # X o O . e Q 1.O.;X>Xr 9XnXMXsXnXeXnX",
"rXrXkXnXkXfXHX] R ;.*.<X'.p F.KXhXVXhXgXhXxXgXiXzX4X4X,X{.~.^.c.F H v 9 8 > * = = % % # % # # $ $ . w Q ,.O.;X>Xr 9XMXMXsXlXlXrX",
"rXbXkXrXNXsXHX6.E 2.&.uX'.i E.hXt.a.| u.u.u.u.e.u.p.p.y.y.r.q.Z n v b 8 2 3 * = = $ $ $ $ # # % # - w ~ 2...;X>Xk 9XnXMXsXrXSXbX",
"rXrXSXrXdXfXHX6.R h.%.uX_.e E.ZXu.<.=.>.:.@.:.=.=.s.s.i.a.a.4.5.m z z 7 3 3 * @ # % o O $ % # $ # - e ~ ;...;X>Xe pXNXNXsXlXlXrX",
"dXrXnXrXDXfXCX6.T h.X.uX'.e F.VXe.K K K K K K K J U / ( ( x x x h z l 7 3 3 * * % % # - - # % $ # % 0 Q 3...[.>Xr pXNXMXBXlXSXeX",
"rXrXkXlXdXaXHX6.! 1...<Xm.M S jXN.J J 5.m ( ( ( ( 4.4.4.q.S 5.m n z 1 7 5 : * * & % # . # + o % % . 0 Q 1.+.=X>Xr 6XNXNXbXSXnXSX",
"rXkXkXrXrXfXCX6.E 2.X.M.@XPXAXz.} K ^ GXGXJXFXcXcXiXiX4X[.`.b.c.S Z 4 7 : 3 ; @ & = % % % o + % + - 0 W 1.+.-X>Xr 6XrXnXMXnXnXnX",
"dXrXkXeXdXaXFX6.W =.i.c.PXLXLXM.[ K ^ hXiX!.!.R./.R./.T.T.J.r.l.D Z 7 7 5 : ; & # % # o % o o + + . 0 W ,.+.-X<Xy 6XrXdXMXbXbXbX",
"rXkXkXkXdXaXHX6.! <.o.c.AXLXPXv.{ W j FXhXY.Y.U.L.L.U.I.d.p.t.8.S n 4 7 : , ; ; % % % % + o o # + . 0 W ,.+.-X:Xr 6XrXdXMXbXbXnX",
"dXkXkXkXkXaXHX] T 2.@.z.F LX@Xz.8.W h hXiXY.U.Z.Z.L.U.P.S.D.y.7.9.n 4 6 : : ; ; % = o # + o o . % . 0 W ,.+.-X<Xr 6XrXrXMXbXbXbX",
"rXrXkXeXrXaXHX6.E ,.$.z.H LX@XF  .J x hXgXI.Y.P.P.L.U.R.D.p.r.5.S n 4 6 5 : ; & = % % % % O o # + . 0 W -.+.-X:Xr 6XrXaXMXbXbXNX",
"dXeXkXkXdXaXHX6.T 2.$.z.H #X#Xl.8.P x xXiXT.C.U.P.L.U.K.D.y.r.9.S v 1 4 5 : ; & = % % % % O o @ + . 0 W ,.+.-X:Xr 6XrXrXMXbXbXbX",
"dXeXkXkXdXaXHX6.Q -.%.c.B #X|.m.[ P j xXzXR.K.L.Z.L.P.R.d.y.r.q.9.n l 7 5 : ; * % % % % + o o # + . 0 W ,.+.-X:Xr 6XrXNXMXbXnXbX",
"kXkXkXkXrXfXHX6.T 2.j.k.vXPXvXz.} J ^ gXiXY.Z.L.Z.L.L.R.K.p.r.8.7.Z 1 7 : : ; * = $ $ # % O % @ + . 0 W ,.+.-X:Xr 6XnXNXMXbXbXbX",
"dXrXkXkXdXfXHX6.W h.%.M m.IX@Xv } K ^ gXgXY.A.L.Z.Z.U.P.D.d.r.q.7.n l 7 5 , ; * % $ % % % o o # + . 0 W ,.+.-X:Xr 6XbXnXMXbXbXbX",
"dXkXkXrXdXfXCX6.E =.o.~.: b 9 v x.P ^ VXhXU.Z.U.L.L.U.R.B.N.t.8.S Z 1 7 7 > * + = $ % % % $ o @ + - q W ,.+.-X:Xr 6XrXdXMXbXbXnX",
"rXkXkXrXrXfXFX] E 1.+.uXm.6 F CX| Q ^ gXiXT.S.U.P.L.U.K.D.p.r.8.7.n 1 7 7 3 * * = = % % % O % @ + # q W ,.+.-X:Xr 6XrXdXMXnXbXNX",
"kXdXdXrXkXrXCX' ~ 1.o.uX$Xe E.CXe.J j zXzXK.Y.Z.P.P.P.P.f.p.0.q.S n u l 1 3 @ * = o % % % o o # + . 0 W ,.+.-X:Xr 6XrXdXMXbXnXnX",
"kXaXdXrXkXfXCX' ~ 1.| uX).i F.ZXe.J ^ zXiXR.Y.A.K.f.P.P.K.D.r.9.9.n l l 5 3 * = % % % % + O o @ + . 0 W ,.+.-X:Xr 6XrXdXMXbXnXNX",
"dXdXdXrXkXfXCX' R 3.O.uX(.i F.ZX#.J / hX4XY.A.A.U.R.R.f.f.y.r.q.7.n l 6 : : * & o = % % % o % @ + . 0 W ,.+.-X:Xr 6XrXdXMXbXbXbX",
"dXdXdXrXkXrXCX' R s.| jX'.p G.ZX#.K / hXiX!.A.Y.K.T.R.f.d.y.0.D S n l l 1 : * = % % % % + O o & + . 0 W ,.+.-X:Xr 6XrXnXMXbXbXbX",
"kXdXdXrXkXdXFX' E =.O.4X'.p F.ZXN.K Y hXGXhXjXhXcX4X4X,X[.`.^.c.l.Z l 7 5 , * * % + % % % O o + % . q W ,.+.-X:Xr 6XnXNXMXbXbXbX",
"rXfXdXrXkXrXFX' E 1.O.uX'.p F.hX| J j b.b.b.F.F.n.(.y.J.y.c.9.D A v 4 6 2 , * * % + % % % O + # + . 0 W 2.+.-X:Xr 6XnXbXMXbXbXbX",
"rXdXdXrXrXrXHX' R 1.o.uX'.i E.CX} J i i i s s s s d f U I ) t v l l 4 6 : , * = + o + % % o o # % . 0 W ,.+.-X:Xr 6XrXdXMXbXbXbX",
"rXaXdXrXkXdXCX' R 1.%.uX'.e b.HXp.-X:X-X-X-X:X,X,X,X[.[.`.^.^.G A v b 6 5 > * + % + % % % o o @ + . 0 W ,.+.-X:Xr 7XrXdXMXbXbXnX",
"rXdXdXrXkXrXCX' R h.%.uX'.i F.HXe.!.T.Q.Q.Q.Q.Q./.(./.(.n.v.G A V c c 8 3 > * * + + % % + O o . + @ 0 W ,.+.-X:Xr 6XeXdXMXbXbXbX",
"kXfXdXeXkXfXHX[ ~ 2.+.uX'.e n.CXu.:.X.>.:.:.:.@.=.s.i.y.0.v.G G A V b 8 3 3 * + + + % % % O + % + - 0 W 2.+.-X:Xr 6XrXdXMXbXbXNX",
"rXfXdXeXkXrXCX' R ,.@.uX'.i E.hX#.;.;.;.3.3.>.>.>.s.i.t.0.oX~.^.G D B 9 3 > * % + + % % % O o @ % . q W <.+.-X:Xr 6XrXNXAXnXnXNX",
"rXrXrXrXdXfXCX' ~ 1.%.uX'.e E.CXo.3.3.3.3.3.;.-.1.1.s.t.l.^.H A V c 9 8 3 > * * + + + % % $ % # + . q W ,.+.=X:Xt 7XbXbXMXnXrXbX",
"dXrXeXeXdXaXCX6.~ <.%.uX-Xi G.ZXa.=.&.X.&.*.-.=.=.2.s.t.5.G S F A B 9 8 3 > * & % % % % % o o @ + - 0 W ,.+.-X:Xt 9XbXNXsXnXlXdX",
"rXrXrXeXnXsXCX] R <.%.uX).i F.VXi.=.@.=.:.;.,.<.<.>.s.d.r.] m n c c 9 8 3 > ; * % % % % % o o # + . q W ,.+.=X:Xt 9XbXbXsXrXrXrX",
"fXkXrXeXdXfXhX5.R 2.o.<X_.i F.HX| ~ T T T R R P U _ _ _ } / { n v z c 5 2 > ; * % % % % %   o # % . 0 W >.+.-X:Xt 9XbXNXMXrXeXnX",
"rXkXrXkXdXfXCX' ! ,.o.uX_.e F.VX| R d g g f f g k ) ) ) ) ( ^ x z z 6 3 , : ; * % % % % % O o @ & . 0 W 2.X.=X:Xt 9XbXNXsXrXrXnX",
"dXrXeXeXdXaXCX6.E ,.%.<X_.e F.VXe.K / %X3XjX1X3X3X4X[.[.{.n.x x z l l 7 : , ; & = % % % % O o # % . 0 W >.+.[.:Xt 9XbXNXsXrXrXdX",
"rXrXrXwXdXaXCX6.R h.%.1X;X< M.KX} L ^ hXcX].].].[.]././.T.J.y.Z ] n l 6 5 : ; ; % % $ % + o o @ + . 0 W ,.+.=X:Xt 9XbXNXsXkXnXrX",
"dXrXeXeXdXfXVX] ! :.%.<Xz.v.v.$Xx.J ^ iXiXI.Z.Z.K.f.f.f.d.y.r.8.7.n l 1 3 3 ; & = = % # % O o # + . 0 W ,.+.-X:Xt 9XbXbXBXkXlXrX",
"dXeXrXeXdXaXHX6.E 2.%.b.pXPXKXz.g.P ^ cXzXT.A.L.P.f.P.f.d.y.0.7.7.n l 7 1 : ; ; % % % % % O + # + . 0 W ,.+.=X:Xt 9XbXNXsXeXrXNX",
"rXrXrXeXrXaXCX5.W 3.S.z.PXIXLX.X[ L I zXiXY.A.A.P.P.P.P.d.p.r.5.S n 1 7 5 : ; & * = # $ % o o @ + @ 0 W 2.+.=X:Xt 9XbXNXsXnXlXdX",
"rXrXeXeXdXfXHX] ! ;.j.v.@XLXmXm.g.P ) iXiXY.A.A.P.P.P.f.D.p.r.8.9.v 1 7 3 : ; & = % % # % O o # + - 0 W -.+.=X<Xt 9XbXbXsXrXrXrX",
"dXrXrXeXrXfXCX6.U 1.j.z.H LX@XH g.J ^ zXiXT.A.A.Y.R.U.L.C.N.t.7.S v l 5 2 : ; ; # % % % % O o @ + @ 0 W ,.+.=X:Xr 6XrXNXMXrXeXNX",
"rXrXrXeXdXaXCX' U <.j.z.H LX@XF g.K { iXzXK.A.A.L.P.U.L.Z.p.r.7.6.n l 6 5 , * & % # % % # O o # + - q W ,.+.=X>Xr 9XrXdXaXkXkXkX",
"dXrXeXeXdXaXFX6.E 3.%.z.B }.}.z.g.P ^ zXzXG.Y.A.K.R.R.P.C.d.r.9.S n l l 5 , ; = = $ o # + O o @ + . q W ,.+.=X:Xt 7XbXNXsXeXrXrX",
"fXrXeXrXNXfXCX] R 2.h.l.}.@X@XF k.J j gXiXT.Y.Y.K.T.R.K.D.y.q.9.S n l l 5 , * = = % # o % O + # + . q W 1.+.=X:Xt 9XbXdXsXkXkXrX",
"rXrXeXeXdXjXHX6.Q -.j.k.vXLXmXH ] f m xXuX].!.!./././.R.D.d.y.0.9.v l l 5 > ; * % = % % % o o # + . q W ,.+.=X>Xt 6XrXdXaXkXkXrX",
"eXrXeXeXdXfXVX' W h.#.7.V #Xm.u  .W ! hXcXCXCXHXFXzXzX4X[.`.^.c.l.n l 8 : , * = = % % % % O o @ + . 0 W ,.+.=X>Xt 7XrXdXdXkXrXrX",
"fXrXrXrXdXfXJX6.! >.#.$Xl 1 < z.V.L K ( m ( / ( m 4.4.4.4.q.m Z n z l 6 5 , * & % % % % + O o @ + . q W ,.+.=X>Xt 9XkXdXsXeXkXrX",
"kXrXkXrXdXfXCX' ~ 3.@.uX~.< z.CXt.E U f g J J J f ) g ) ( x x n z l l 5 : > > = % $ % # % o o # + . 0 W ,.+.=X:Xy 9XdXrXsXrXrXrX",
"rXrXrXkXtXfXHX] T 1.+.<X'.a H.GXy.<XhXFXFXCXVXCXxXiX4X4X;X`.~.c.S D v b 8 > * & = % $ % % O o # % @ 0 ! 2.+.=X>Xt 7XnXnXaXeXkXrX",
"rXrXwXDXBXsXCX7.E s.| <X(.e F.FX| I.a.B.B.V.V.V.N.J.d.d.n.r.q.9.A v l 7 : > * = = # # # % O o # & . q W <.+.-X<Xt 9XbXSXaXkXkXdX",
"rXeXkXeX5X*X2Xm T s.| uX`.e H.xXt.@.| u.#.u.u.u.#.i.a.a.p.e.8.Z v z c 7 : > ; * # $ $ # % O o @ + . q W ,.+.-X>Xy +XOXUXfXdXeXrX",
"rXfXlXUX|.~..Xx ~ h.%.<X].p H.KXxXJXGXcXxXFXHXFXxXiX4X4X{.~.^.v.l.D C b 8 3 > = $ # # # % O + # + . q W ,.+.-X<Xy ~.^.XX+XrXkXkX",
"rXfXdXXX XXXXXv K Q W x.} d / k.w.k.8.w.8.8.w.w.w.x.x.c.0.0.D Z v c 4 : : @ @                     X < d W Y k.k.t ~.|. XoXqXlXkX",
"eXeXDX+X X|.OXG M ` ] [ ] ` { ` ` ` ] ` ] ` ] ` ` 6.8.8.l.D S D A D V V V C B B B b B N N N N N c c M M ] ` M ] S ~.XXXXXXlXDXSX",
"dXrXSXqXOX XXX|.oXoXoXoXoXXXoX+XoXoXoXoXoXoXoXoXoXoXXXXXXXXXXXoXoXoXoXoXoXOXOXOXOXOXOX#XOX#X#XOXOXoXoX$X$X$X$X$X.XOX|. X5XSXSXnX",
"dXSXeXDXtXyXyXyX8X0X5XyX8XwXyX8XwXwXwX8XwXwX8X8X6X8XwXtXwXwXqX7X8X6X8X9X0X8X0XtXyXmXnXnXqXnXyXnXqXqXqX0XtX9XtX8X9XvXyXqXSXSXtXdX"
};
