/* XPM */
static char *ZG9vcjE_[] = {
/* columns rows colors chars-per-pixel */
"64 64 256 2 ",
"   c #3B3832",
".  c #27351C",
"X  c #540F07",
"o  c #6C0000",
"O  c #6C0C06",
"+  c #690604",
"@  c #730100",
"#  c #7B0302",
"$  c #780906",
"%  c #741907",
"&  c #771708",
"*  c #6F1511",
"=  c #732919",
"-  c #4D312D",
";  c #6A3A27",
":  c #743A25",
">  c #743929",
",  c #783728",
"<  c #6F2D2C",
"1  c #354F3A",
"2  c #6B462D",
"3  c #73554E",
"4  c #73716E",
"5  c #615B51",
"6  c #345D4B",
"7  c #840100",
"8  c #8A0201",
"9  c #840D05",
"0  c #870809",
"q  c #9C0305",
"w  c #960506",
"e  c #831515",
"r  c #910F10",
"t  c #A10105",
"y  c #AC0B0A",
"u  c #B10D0D",
"i  c #B20607",
"p  c #A9130C",
"a  c #AC0E12",
"s  c #B30D12",
"d  c #BA0D13",
"f  c #AA1413",
"g  c #B21D19",
"h  c #BC1D1C",
"j  c #B41B16",
"k  c #B7140E",
"l  c #8D291C",
"z  c #932B1D",
"x  c #89341D",
"c  c #92331D",
"v  c #B6241C",
"b  c #AB241B",
"n  c #B21C23",
"m  c #9C2C22",
"M  c #972A23",
"N  c #8B3521",
"B  c #8D3A2B",
"V  c #873A28",
"C  c #91392B",
"Z  c #983529",
"A  c #8D342F",
"S  c #A42D27",
"D  c #A8352B",
"F  c #BA3827",
"G  c #A83835",
"H  c #B23337",
"J  c #8C162C",
"K  c #C4181B",
"L  c #C20D16",
"P  c #D11D23",
"I  c #C52C2C",
"U  c #CD292C",
"Y  c #C82B27",
"T  c #D3262A",
"R  c #DC2C2C",
"E  c #D72728",
"W  c #CA372C",
"Q  c #D33D2E",
"!  c #D8342D",
"~  c #C82A33",
"^  c #DB2D33",
"/  c #CE3531",
"(  c #CB3C35",
")  c #D43934",
"_  c #D93835",
"`  c #EB2C2D",
"'  c #E5282B",
"]  c #F22D2C",
"[  c #F8282A",
"{  c #E4332E",
"}  c #EB312E",
"|  c #E4372A",
" . c #F2302C",
".. c #ED2C33",
"X. c #E72E33",
"o. c #F22E33",
"O. c #FB2D33",
"+. c #FB2E39",
"@. c #ED3433",
"#. c #EC353A",
"$. c #E73837",
"%. c #F23333",
"&. c #F5343A",
"*. c #D52524",
"=. c #8E4736",
"-. c #B15136",
";. c #AF6238",
":. c #CC4235",
">. c #CA4B37",
",. c #D54538",
"<. c #C3472F",
"1. c #ED543D",
"2. c #A73547",
"3. c #973840",
"4. c #D23A44",
"5. c #E93844",
"6. c #F43445",
"7. c #EC2B41",
"8. c #9B5A49",
"9. c #9E5B53",
"0. c #8A544A",
"q. c #A25D4E",
"w. c #A95848",
"e. c #A35C55",
"r. c #B14E48",
"t. c #966858",
"y. c #936654",
"u. c #AA6446",
"i. c #A1604E",
"p. c #A86548",
"a. c #A46755",
"s. c #BA6B54",
"d. c #B66D54",
"f. c #B77258",
"g. c #AC7150",
"h. c #8F746C",
"j. c #A87A69",
"k. c #AB7569",
"l. c #D4514A",
"z. c #EE5A48",
"x. c #FD5D45",
"c. c #F35D49",
"v. c #FD5D4B",
"b. c #F65746",
"n. c #FF5D51",
"m. c #FF5B57",
"M. c #DA684C",
"N. c #DC6752",
"B. c #DB7758",
"V. c #C56B50",
"C. c #E8664A",
"Z. c #FC6246",
"A. c #F5624A",
"S. c #FC624B",
"D. c #F76748",
"F. c #E46355",
"G. c #E96856",
"H. c #FE6252",
"J. c #F56654",
"K. c #F47458",
"L. c #E77357",
"P. c #FA7862",
"I. c #EC7E6F",
"U. c #999278",
"Y. c #AC917B",
"T. c #96A17F",
"R. c #DA876C",
"E. c #D79477",
"W. c #E78972",
"Q. c #FE927A",
"!. c #F3997E",
"~. c #F08570",
"^. c #D6A27B",
"/. c #D7805D",
"(. c #8E8F85",
"). c #A99C82",
"_. c #B59A87",
"`. c #B88F89",
"'. c #94A585",
"]. c #A4A484",
"[. c #A9A589",
"{. c #B1AB92",
"}. c #AFB1AF",
"|. c #D89C88",
" X c #C99789",
".X c #FA9A88",
"XX c #DEAA8B",
"oX c #DAA787",
"OX c #D7A791",
"+X c #D9A991",
"@X c #D5AB92",
"#X c #D4B293",
"$X c #CAA08A",
"%X c #EFA48D",
"&X c #E6A98C",
"*X c #F1A48D",
"=X c #E4A994",
"-X c #FFB69D",
";X c #FEBA9C",
":X c #FEB795",
">X c #F2B191",
",X c #FEBBA3",
"<X c #F3B5AA",
"1X c #D9B1A5",
"2X c #FDC39A",
"3X c #DED7B4",
"4X c #D5DCB5",
"5X c #DDDAB5",
"6X c #D6DCBA",
"7X c #DDDCBC",
"8X c #D8D6B8",
"9X c #D2D5B2",
"0X c #E7C9A7",
"qX c #E9CBA8",
"wX c #FDC4A5",
"eX c #FECAA4",
"rX c #FDC5AB",
"tX c #FBC9AA",
"yX c #F3CDA3",
"uX c #FDD2AE",
"iX c #F8DBA8",
"pX c #FDCDB2",
"aX c #F8C9B4",
"sX c #E2D5B5",
"dX c #E2DAB5",
"fX c #E4D5BB",
"gX c #E1DBBC",
"hX c #EDDCBC",
"jX c #EBD2B5",
"kX c #FCDCB3",
"lX c #F3DABC",
"zX c #FFDEBC",
"xX c #F7D6B7",
"cX c #EACDB7",
"vX c #CEE3BA",
"bX c #DAE1BD",
"nX c #D4E1BC",
"mX c #E6E1BA",
"MX c #FEE3BD",
"NX c #FFEABE",
"BX c #F8E2B3",
"VX c #CBD7CE",
"CX c #EBDBC3",
"ZX c #FFDDC5",
"AX c #FFDECA",
"SX c #F9D8C3",
"DX c #F5D3D0",
"FX c #D7E3CC",
"GX c #FEE3C2",
"HX c #FEEAC4",
"JX c #FDE6CA",
"KX c #F2EFCD",
"LX c #FDFCFB",
"PX c #EFEFEE",
"IX c #E5E3E9",
"UX c #B2CBB7",
/* pixels */
"7X7X6X6XbXdXsXxXxXxXSXlXlXcXCXlXlXlXhXhXhXhXhXhXhXhXhXhXhXhXhXhXhXxXlXhXhXhXhXhXlXhXhXhXhXmXhXGXhXSXlXSXSXSXlXcX8XgX6X5XbXbXCX7X",
"7X6XbX9X6XqXaXY.8.8.w.w.q.q.q.q.q.y.9.i.q.q.q.e.q.q.q.q.i.i.8.i.i.9.i.i.q.i.i.i.i.i.i.9.i.i.i.i.q.q.e.w.q.8. XSXlXgX4XFX7XgX7X7X",
"bX5X4XvXdXxX9.X $ # $ # $ # # $ # # # # # # $ $ $ # # 7 # 9 # # # # # # # $ # # # # # # # $ # 9 $ # # # $ * X a.cXfX7X9X7X7XFX7X",
"5XbXdXmX9XhX; w.w.w.w.M 7 q d s a a s d s a a s s u u u u u u u p u u a a k a s a u d s a f z r.e 7 m r.-.w.=., AXfXFXvX7X7X7XgX",
"bXdXqXjX5XFX2 .XJXNXNXf.# s +.&._ $.%.O.%.{ $.@.%.%.@.@.@.%.%.@.@.%.@.@.%.%. .@.$.%.O...5.,.V.JXz @ B.JXJXHX#X, AXfXvXnXFX7XgX7X",
"4XdXsXdXbXmX, N.M./.BXf.@ s ' ^ ! ! { ' ' ! ! ! ' { R ^ R ! R R ' ! ! R R ' R ! R ' ..' E / V.JXD @ D C.V.uX#X, AXfX4XFX7X7XgX7X",
"5X5XmX4XbXdXC U ! -.kXd.@ D *X*X&X%X*X*X%X&X&X%X*X%X%X%X*X%X%X%X%X%X&X*X*X*X*X&X&X*X*X.X%X&X>XKXZ @ S / F tX#X, SXfX7X7X7X8X7XCX",
"bX6XnX4X5XjXG ' ..<.MXd.$ G eXyXyXyXeXeXeXyXyXyXeXtXyXtXtXtXuXyXyXeXeXeXyX2XyXyXyXeXwX,XrXpXyXqXD 7 k { Q pX#X> AXfXfXgX7XFX7X6X",
"7X5X4XnX6XlXZ ' o.,.ZXs.7 @ o o $ @ # # @ @ @ @ @ @ @ @ @ @ @ @ @ @ o @ @ @ @ o o o @ # # # # @ # 7 h +.! rX#X2 AX8XfXfX7X7XCX7X",
"7X5X4XbX6XDXZ E @.<.zXs.7 # + + o @ # o o o o o o o o o o o o o o o o o @ @ o o + + o o o o o + 9 7 d O.{ 0X#X; DXCX8XfXCXnXCX6X",
"5XbXbX5X6XhXC U _ >.MXV.7 l >X2X,X*X,X-X,X,X-X-X-X;X:X;X;X;X;X:X:X;X-X;X-X-X,X-X-X,X-X-X;X-X;X,Xe 7 h +.! rX#X; KX6X6XfX7X7X6XFX",
"7X5XdX4X6XhXC ~ ,.-.MXs.7 M MX@X=X%X=XXXXX+X=X+XXXXX&XXXoX&XXXXXXXXXXX&X&X|.&X+X+X@XXX>X=XXX&X>Xe 7 h %.! rX#X2 GX6X7XFX7X7X7X7X",
"6X5XmX4X6XCXZ U $.-.ZXs.7 m rXF R $._ ) ( _ _ _ ) ) ) ) / ) ) ) ) ) ) ) ) ) _ _ _ _ ! _ ) ! ! _ r # g @.Q rX@X; AX7X7X7X7XFX8XgX",
"7XbXbX4X5XCXZ E @.<.zXs.# m ,XI &.' P U T T E E U U E E T T T T T E T T T U E E E ' P ' o.%.O.+.q 7 j $.! aX+X, AXgX7X7XCX6XgX7X",
"dX6XbX4X7XlXS E o.>.JXf.+ A pXF _ i 8 # @ # 8 7 # # # # # # # # # # # # # @ # 7 8 8 q k $.} } } q 7 g $.W aXOX, SXCX7X7XFX7X7XCX",
"6X6XnX4X8XhXB I $.l.<X3 3 3 aXF ` k 9 =.g.-.;.;.w.u.p.p.u.u.u.u.p.u.p.p.p.;.u.u.u.=.7 K @.{ @.@.q 7 v @.) ,XOX, AXfX5X6X7X7X7X7X",
"5X7X7XCXfXlXA F $.H t.PXLX}.j.4.+.i 7 +XHXiXiXuXaXpXpXpXpXpXpXpXpXpXuXpXuXiXuXuXKXE.# K #.X.| %.q 7 g %.Q tXOX> AXfX7X7X7X7X7X7X",
"5X5X7XfXcXxXC U #.D @XLXLXPXh.^ ' k 8 |.2XM.M.M.F.J.J.J.J.J.C.J.J.J.C.J.C.L.F.V.pXW.# K &.{ } @.q 8 g @.Q tXOX> AXfX5X6X7X7X7XCX",
"6X5XbXfXcXxXC U 6.S j.PXLXUX5 l.#.y 8 |.2X1.D.K.m.H.S.S.v.S.S.S.v.S.S.S.v.H.H.G.aX~.# K #.{ } } q 7 g @.Q tXOX> AXfX7XFX6XCX7X7X",
"5X7XvX6XfXjXA U 7.H a.}.PX4 h.l.@.y 8 |.:XZ.Z.Z.n.S.D.S.A.A.D.Z.D.Z.D.S.S.n.b.G.aXW.@ K #.{ @.%.t 7 g @.Q tXOX> AXfX7X7XbXgXbX7X",
"4X4XvXvX5XmXB I 7.H 0.}.LX4 h.4.$.y # |.:X1.Z.Z.m.S.A.A.A.A.D.S.S.S.A.A.v.v.v.J.pXW.o v #.{ } ] t 7 g @.) tXOX> AXfX7XbX7X7X7XbX",
"dX4XvX4X3XhXV I #.H t.5 }.h.t._ X.p 7 |.:X1.D.D.n.n.v.S.S.v.v.v.v.S.S.S.v.x.H.F.pXR.@ v #.{ %.O.t 7 g @.) tXOX> AXgX7XbX7XCX7X7X",
"nX5X5XsXjXlXB I $.-.2 }.IX4 k.^ %.p # oX2X1.D.D.H.v.n.n.n.n.n.n.n.m.v.n.S.v.S.M.xXR.@ h @.X.] O.t 7 g %.Q tXOX> AXfX7X6XbX7XgXCX",
"4XdXsXjXcXlXB I 5.D t.KXPX).d.^ %.p # oX2X1.D.D.H.n.n.n.n.n.n.n.n.n.n.n.S.S.D.M.uXR.@ v #.X.%.O.t 8 g @.Q tXOX> AXfX5XFX7X7X7X7X",
"5X5XdXsXqXlXB Y X.>.N j.`.0.V.X.` p 9 |.-Xz.Z.A.H.S.A.S.S.S.S.S.S.S.S.S.S.Z.S.C.tXR.@ h @.{ } %.t 7 g @.Q tXOX> AXfX5X7X7XgXCX7X",
"4X5XnX4XsXmX=.Y .._ ~.2.2.w.*X^  .p # |.-Xb.Z.x.n.S.Z.Z.Z.Z.S.Z.Z.Z.Z.Z.x.x.S.C.yX~.# K #.{ @.%.q 7 g @.Q rXOX> AXCX5XFXbX7X7X7X",
"dXnXnX4X5XgXV Y +.$.JXV.H G tX*.@.p $ |.-Xb.S.S.v.v.v.v.S.v.v.S.v.S.S.S.v.v.v.C.pXR.@ h $.X.] ] t 7 g @.Q tX+X, AXfX6X7X7XgXbX7X",
"5XdX5X3XgXhXC U @.:.ZXs.# c eXE &.p # oX:Xn.S.Z.x.S.n.S.v.H.v.S.S.n.v.n.H.H.m.C.pXI.# b ,...O.O.t 8 j @.) wXOX: ZXfX6XbXgXFXnX7X",
"dX4X5X5XsXhXC U ..>.GXd.# z eXE 6.u 8 |.:Xb.c.A.Z.Z.v.x.x.v.v.x.x.v.x.x.x.c.z.L.pXW.@ v ,.` O.$.q 7 g @.Q tX+X: ZXfX7X7XgX7XnXbX",
"5X5XdX4XsXhXC U o.:.GXd.# m eX*.&.a 7 oX-Xz.C.J.C.A.c.v.v.c.b.x.v.c.v.A.v.H.c.M.xXW.7 K #.]  .| w 7 j %.Q tX+X: ZXgX6XbXfX6X6XbX",
"5X5X5X5X3XhXC U o.:.GXd.# c uXY #.p # ^.;XL.L./.L.K.K.L.K.L.K.K.K.K.K.K.K.J.K.B.tXI.7 K &.o.@._ w 7 g @.Q tX+X: ZXgX6XmXgX7XnXFX",
"5X5XdX5X3XCXC U o.>.GXd.# m eXY #.p # $XJXtXzXxXkXkXiXkXBXkXBXBXkXiXBXBXiXiXBXBXGXR.# h 5.X.$.@.q 7 j @.Q eX+X: ZXfX7X7XgXbXnX6X",
"dX5X5X3XsXhXA T ] >.MXd.# c 2XY %.y 8 = , z x x l l l l z l z z x l z l N c : : A * 0 n l.H ,.$.q 7 g @.Q eX+X: ZXfX6X5X7X7XnXbX",
"5X5X5X5XfXCXB U o.>.zXd.# Z 2XF 1.p 0 & & 9 & & & 9 9 9 9 9 9 9 9 9 9 9 9 $ % % $ J J * < = z 4.w 8 g @.Q rXOX: ZXfX6X6XfX6XnX6X",
"5X7X5X5X3XhXC U o.,.kXs.9 z uXF / P.,X-X;X2XwX2XwXwXtXwXtXtXrXwXtXrXwXtX,X-XeXpXaXDX1X< `.).> 2.w 7 g @.Q yXOX: ZXfX6X7XgX6X6XbX",
"dX5X5X3X7XhXC U @.,.zXd.9 z 2Xv #.#.$.Q ) :.:.:._ ( :.( :.:.( :.( ( :.:.( l.=.= - < -   5 . ).A 0 7 g %.Q wX+X: ZXfX8X7XgX6XFX6X",
"5X5X5X5X8XhXC U %.,.MXd.# M tXF @.[ %.@.} @.@. .O.] %.} @.%.} } @. .%.} #.~ < cXPXDXLXIXFXVX- 3.r 7 g @.Q rX+X: SXfX6X7XgX6XbX6X",
"7XsX5X5XsXhXC U ..>.MXs.7 m eXW @.' @.@.} | ! } [ o. . .] ]  . .]  . .] $.S 2 KXVXVXVXIXVXPX- 2.r 8 g @.Q wX+X: ZXfX6X7XfX6XnX7X",
"5X5X5X5XsXhXC ~ @.>.zXs.8 m 2XY } ' | } } | | | O.] ]  .] ]  .` ] ] ] ` ^ H 3 '.6 6 5   5 (.- 2.r 8 n @.Q tX@X: GXfX6X6XgX7X7XgX",
"5X5XdX4XfXlXC ~ X.>.zXs.7 m eXF } ` %.@.@.{ { } O. ...@.@.%.@.@.@.@.@.@.#.4.* 0.h.h.4 4 4 1 3 2.r 7 g @.Q tX+X: ZXfX6X7X7X7XgX7X",
"dX5X5X4XsXhXC U o.>.ZXs.7 m rXF #.' ' R ^ ! ! R ' ' ^ ^ ^ R { R R R ^ R ! ^ l.4.4.J * 3 '.'.U.G r 7 j @.Q tX+X: ZXfX7XbX7XgX7X7X",
"5X5X5X3XsXhXC U o.>.zXd.# M rXI #.L 8 7 7 $ $ $ 9 8 8 8 8 8 8 9 8 8 8 8 w $ 8 8 r $ + < 4 U.; n w 8 j @.Q tX+X: GXfX6X6X7X7X8XgX",
"7X5X5X4X5XhXC Y o.>.MXg.$ M aXI 6.s # l N N x 2 N V N N B N N N N N N N x x x x A J + * * X O _ w 7 g @.Q tX+X: AXfX6XbXgX7XgXgX",
"5XdX7X3X5XhXB T %.:.GXf.* V pXI #.a # oXJXZXGXJXJXJXHXJXHXHXHXHXHXJXHXHXNXNXKXHXJX|.$ 0 # # b ,.w 8 j @.Q tXOX: ZXfX6XbX7X7XgX7X",
"5X5XdX3X3XdXN T o.l.zXy.X > uXY #.k 7 ^.-XJ.P.P.P.P.K.P.K.P.P.K.P.P.K.P.K.K.P./.JXR.@ i i K $.$.q 8 g @.Q tXXX: ZXfX6XbX7X7X7X7X",
"5X5XdX3X3XmX=.Y ..l.j._.DXy.XX/ _ p 8 ^.:Xb.n.J.S.A.S.S.S.S.A.S.A.D.A.S.v.b.S.C.lXR.7 K #...O. .q 7 g @.Q tX@X: ZXfX6XbX7XfX8XgX",
"dX5XdX3X5XmXB U 5.D y.LXLXCXf./ #.f # ^.:XA.C.J.A.S.S.S.S.S.S.S.S.S.S.S.S.x.H.C.uXR.# K #.] [  .t 7 g @.Q eX+X: ZXfX6X7X7X7XgXgX",
"5X5XdX3X5XmXV U 7.M 1XLXLXDXk.~ #.p $ ^.2XC.L.C.C.Z.v.v.v.v.v.v.v.v.v.v.v.A.S.F.xXW.# K $.` [  .q 7 g @.Q tX+X: ZXgX6X7XgX7XgX7X",
"5X7XdXsX3XmXV ~ 5.r.2 VXLX(.9.4.6.f # ^.:Xb.S.S.Z.v.S.S.S.v.S.S.v.S.S.S.S.Z.A.C.aXI.# K #.} | | q 8 g @.:.eXXX: AXfX6X6XgXgX7X7X",
"dX5XdXsX3XmXV I 7.G 4 }.IX4 j.5.7.a 0 oX:Xb.S.Z.x.S.S.S.S.S.S.S.S.S.S.S.S.1.S.C.xXW.7 K #.{ { ,.w 7 j @.) tX@X: ZXfX6XFX7X5X7XgX",
"dX5XsXsX4XmXV / 7.G 3 }.PX4 t.5.6.t 7 ^.:Xb.Z.D.D.Z.x.S.Z.Z.Z.Z.S.S.Z.Z.Z.x.1.C.tXW.# h #...%.{ q 7 g @.) tX@X> AXfX8X7X7X7XgX7X",
"5X5XdXsX5XCXV U 6.G h.- (.(.t.5.7.u 8 ^.:X1.A.S.x.S.S.S.S.S.S.Z.S.S.S.S.S.Z.C.B.uXW.@ h #.o.%.#.q 7 g @.) rXOX> AXfX8X6XgX7X7XfX",
"5X5XdX3X3XdXB U 6.H 0.8XPXh.a.4.^ f $ oX:Xz.z.A.x.c.z.c.c.c.z.c.c.z.c.c.1.A.C.V.yXW.o h 5...@.@.q 8 g @.) tX@X, ZXfX7X6X7X8XgXgX",
"5XdX5X3XdXmXB Y o.H 0.DXLX`.9.4.5.p O ^.2XQ.Q.!.Q.Q.!.Q.Q.Q.Q.Q.Q.Q.Q.Q.Q.Q.Q.!.ZXR.+ h #...` @.q 7 g @.Q tX@X> AXfX5XFXgX7XgX7X",
"dX3XdX4X3XmXx *.+.,.B =.e.A I.' 6.i 9 /.qX<X0X0X<X0X0X0X0X0X0X0XqXqX0X0X0X0XsXqXjXV.o h #.[ O.O.t 8 g #.Q rX+X, AXfX7X6X8X7XgX8X",
"3X5X4XdX0XmX=.E +.,.<Xe.2.r.-XP +.i # O % & % % % % % % % % % % % % % % & & & * % & @ h @.[ O.O.t 7 g @.W rXOX, AXsX7X7XgXgX7XgX",
"dX5X6X7X3XhXC U +.:.HXs.e z tXY X.Y D z c m c c c N x c c x c c c c N c z S c c c c b I #.` ' ` t 7 g @./ tX@X> SXfXgX6XgX7XgX7X",
"5X5X5X7XfXCXA P %.,.MXd.7 m uXS ) .XwXwXeXwXtXtXtXtXtXtXuXtXtXtXyXtXtXtXtXtXrXrXrXrXrXP.Y @.%.@.q 7 h #.Q pXOX> SXCX3X9X7X7XgX7X",
"5X3XCX6X3XcXA T o.l.uXs.8 m eXW Y ,.( W ! ! / / ) / / / / / / / ) / / / / ( ( ( <.W v Y $.{ E $.t 8 g @.Q pX+X, aX8XFXFXgXgXgX7X",
"5X5X9X{.[._.A U @.>.BXd.# m eXN.F.N.V.F.F.F.F.N.F.F.F.F.F.F.F.F.F.F.F.F.N.N.M.M.M.M.L.L.M.M.L.M.r 7 g %.Q tXXX< $X_.{.9X7X8XgX7X",
"5X5X{.T.)._.l ~ $.>.HXs.9 M NXMXGXGXHXMXNXNXNXNXNXNXHXNXNXNXNXNXNXHXNXNXHXNXNXNXNXNXMXNXHXMXGXJXz 7 n 5.,.xX=X< _.Y.T.{.CX7XgX5X",
"5XdXY._.Y. X< * $ e e e 0 $ O O $ O O O O O O O O O O O O O O O O O O O O O O O O O O O O $ O O # 0 0 0 e * = <  X_.{.].9X6XgX7X",
"5XmX{.[.Y.{.t.t.9.e.e.e.e.9.9.9.9.9.9.9.9.e.t.e.9.i.9.9.9.9.9.9.9.9.9.9.9.9.e.9.9.9.9.9.9.9.9.9.e.e.e.9.9.9.t.t.{.Y.'.{.6X5X7X5X",
"5XvXvX{.'.'.'.[.[.).T.).).].].].].].].].].].].].].].].].].].].].].].].].].].].].].].].].].].[.'.[.[.).).[.[.'.'.T.'.{.vXmX5XbX5X"
};
