/* XPM */
static char *ZG9vcjM_[] = {
/* columns rows colors chars-per-pixel */
"64 64 256 2 ",
"   c #0C0A06",
".  c #150C09",
"X  c #0F160F",
"o  c #09190B",
"O  c #18140E",
"+  c #190E17",
"@  c #0F1414",
"#  c #0B1811",
"$  c #0A1614",
"%  c #141313",
"&  c #1A1613",
"*  c #1E1A16",
"=  c #161918",
"-  c #2C0809",
";  c #240C07",
":  c #231C16",
">  c #291D16",
",  c #221D19",
"<  c #2A1E1C",
"1  c #2E170E",
"2  c #1E2017",
"3  c #232116",
"4  c #232319",
"5  c #2B221A",
"6  c #2A2718",
"7  c #3B2215",
"8  c #33231A",
"9  c #362417",
"0  c #29210E",
"q  c #3F2D21",
"w  c #460905",
"e  c #5C0504",
"r  c #571507",
"t  c #6E0503",
"y  c #6C0B04",
"u  c #6B020B",
"i  c #650608",
"p  c #740302",
"a  c #790A05",
"s  c #6B1708",
"d  c #721204",
"f  c #781708",
"g  c #6A1B15",
"h  c #741E11",
"j  c #442C1D",
"k  c #4A2A1B",
"l  c #5B331C",
"z  c #572C13",
"x  c #6B2516",
"c  c #7A2718",
"v  c #6B341C",
"b  c #65361B",
"n  c #79361B",
"m  c #75290F",
"M  c #492A20",
"N  c #4B3525",
"B  c #5C3524",
"V  c #573825",
"C  c #50332D",
"Z  c #673724",
"A  c #763725",
"S  c #73302A",
"D  c #7F1E25",
"F  c #3F4335",
"G  c #58442C",
"H  c #46423A",
"J  c #5A4837",
"K  c #45513B",
"L  c #69432A",
"P  c #764528",
"I  c #664C38",
"U  c #77563D",
"Y  c #794B37",
"T  c #79431D",
"R  c #453842",
"E  c #76564C",
"W  c #7B6252",
"Q  c #737670",
"!  c #545452",
"~  c #880504",
"^  c #950003",
"/  c #9A0003",
"(  c #990505",
")  c #871607",
"_  c #95150F",
"`  c #AC1313",
"'  c #83250B",
"]  c #87281A",
"[  c #962817",
"{  c #883419",
"}  c #953414",
"|  c #94290C",
" . c #A52415",
".. c #AB2C16",
"X. c #BF1F2B",
"o. c #862A25",
"O. c #883729",
"+. c #93352E",
"@. c #92382F",
"#. c #943327",
"$. c #883B33",
"%. c #943631",
"&. c #933B31",
"*. c #9E3230",
"=. c #962E23",
"-. c #BB2527",
";. c #B2362C",
":. c #D6251B",
">. c #C41D29",
",. c #D31B24",
"<. c #C4242B",
"1. c #DC2A2C",
"2. c #D62829",
"3. c #C9382B",
"4. c #D23F2F",
"5. c #D9372D",
"6. c #D93C31",
"7. c #D43334",
"8. c #E22B2B",
"9. c #EB2B2C",
"0. c #E52926",
"q. c #F22A2D",
"w. c #EB322E",
"e. c #E4332B",
"r. c #E92D35",
"t. c #F22D33",
"y. c #FB2934",
"u. c #E93236",
"i. c #E73637",
"p. c #F43633",
"a. c #D91E21",
"s. c #854727",
"d. c #964A25",
"f. c #954938",
"g. c #8A5637",
"h. c #98563A",
"j. c #88512E",
"k. c #A65638",
"l. c #B8583D",
"z. c #A7472B",
"x. c #AF633D",
"c. c #A14D25",
"v. c #CC4434",
"b. c #D64536",
"n. c #CA573C",
"m. c #D9553D",
"M. c #CE412F",
"N. c #E6493A",
"B. c #F24C3D",
"V. c #C6613A",
"C. c #D56439",
"Z. c #EF653E",
"A. c #F33943",
"S. c #8E544A",
"D. c #A95B44",
"F. c #A65B45",
"G. c #B95649",
"H. c #936A4D",
"J. c #A36045",
"K. c #A96549",
"L. c #B86746",
"P. c #B27858",
"I. c #947B73",
"U. c #A57D71",
"Y. c #CB5C41",
"T. c #DA5244",
"R. c #D65748",
"E. c #C94C50",
"W. c #D04F4C",
"Q. c #E55B4B",
"!. c #E35D53",
"~. c #F14D43",
"^. c #C76645",
"/. c #D96748",
"(. c #DB6554",
"). c #D17652",
"_. c #E96945",
"`. c #F86A46",
"'. c #E97349",
"]. c #E66458",
"[. c #F07450",
"{. c #D47B69",
"}. c #EA7B65",
"|. c #8C3941",
" X c #76847A",
".X c #9A8B75",
"XX c #AF8E75",
"oX c #A78D5D",
"OX c #D8845A",
"+X c #D3916B",
"@X c #FA936B",
"#X c #ED906F",
"$X c #EFA77C",
"%X c #E69164",
"&X c #9B9A82",
"*X c #949091",
"=X c #AC988F",
"-X c #9CAD94",
";X c #A9A787",
":X c #B6A38A",
">X c #AAA799",
",X c #A9A796",
"<X c #B7A592",
"1X c #B5B498",
"2X c #B6B5A4",
"3X c #9FA2A7",
"4X c #DCA696",
"5X c #DCA998",
"6X c #DAA996",
"7X c #D3AC94",
"8X c #FAA984",
"9X c #F3B08F",
"0X c #E8B7A9",
"qX c #DCA998",
"wX c #FDC699",
"eX c #D3CEB4",
"rX c #CBD3B7",
"tX c #D2D1B6",
"yX c #DDDCBD",
"uX c #D5D7B9",
"iX c #CCC9AD",
"pX c #E3C5AA",
"aX c #E6C5A9",
"sX c #FAC8A8",
"dX c #FBD4A9",
"fX c #E7C5B5",
"gX c #FDCCB6",
"hX c #E1DCBD",
"jX c #E5DAB9",
"kX c #FDD3B4",
"lX c #F9DAB8",
"zX c #D8E2BD",
"xX c #FFE3B4",
"cX c #FEE9BC",
"vX c #FDE6BA",
"bX c #FFE3AE",
"nX c #DDDCC3",
"mX c #DBDBC6",
"MX c #D1D4D5",
"NX c #E1DBC3",
"BX c #E7D8C4",
"VX c #FADBC5",
"CX c #DAE0C3",
"ZX c #EDE7CD",
"AX c #E6E5C8",
"SX c #FEE5C2",
"DX c #FFEDC3",
"FX c #F4E5CE",
"GX c #FDE7CA",
"HX c #FFF2C6",
"JX c #EDE7D1",
"KX c #EBE9D4",
"LX c #FBECD4",
"PX c #FBFBFA",
"IX c #ECECE8",
"UX c #DCEFE9",
/* pixels */
"BXNXNXnXNXhXjXFX5X4X4X4X4X5X5X5X5X5X5X5X5X5X6X6X6X5X5X5X5X5X5X5X5X5X6X6X4X4X4X6X4X4X6X6X5X5X4X4X4X4X4X4X4X0X4XVXAXzXnXnXnXnXCXnX",
"NXyXnXNXNXlXfXK.r e a t p p p p t t t t t t t y y p y t t t t t t t y t p y t p y p t p p t u i y t p p p a i A XXSXyXnXnXnXnXnX",
"NXnXCXnXBXBXaXr h a ) ) ~ ~ ( ~ ~ ^ / / ( / / / ^ ^ ^ ^ ^ ^ ^ ^ ( ^ ^ ( ^ / / / / ^ / / ( ^ ^ ~ ~ ~ ~ ~ ( ) h i F.lXnXnXCXyXnXCX",
"BXBXnXCXNXBXaXr 0XGXvXHX{ ^ >.6.v.e.q.w.i.9.y.t.i.i.i.i.e.i.i.u.u.i.w.w.w.w.u.w.w.w.u.u.u.u.6.%XFX' t 8XVXvXHXK.+.FXyXnXNXnXnXnX",
"BXjXCXCXmXNXsXr (.%X$XHX] / ,.2.3.9.q.q.8.1.e.0.8.9.q.9.q.8.0.0.0.0.9.2.0.0.1.0.0.e.e.u.8.r.7.%XLX[ p R.#X#XcXD.@.KXzXnXnXNXnXCX",
"BXBXCXCXmXBX0Xd ;.;.G.SXc ~ 3.(.]./.~.Q./.(./.(.!.!.!.!.!.!.!.].].].].(./.]._./.].R./.R.R.(.^.+XGX] ~ ` <.;.lXK.@.AXnXnXnXCXnXnX",
"BXyXzXmXBXBX0Xf 3.7.W.SXn i +XGXbXcXbXcXcXvXcXvXvXvXSXSXSXSXvXSXvXSXcXcXvXvXcXcXSXvXSXSXGXSXSXGXVX{ ~ >.A.v.xXD.@.ZXCXnXCXnXnXCX",
"BXAXCXmXmXBX0X~ i.i.!.VX[ ~ ( ) ' s m s s s s s f f f d s f h h g h g s x x s g g h x g x x h r v i ~ <.i.v.vXD.+.SXCXnXnXNXCXNX",
"nXyXmXmXNXBXsXt 7.1.T.SX=.a ~ p ~ ~ _ ) ' ' ] ' ' ' m f h s i r r r w w w w w w w w w w w w w w - e p <.i.M.vXD.*.FXnXnXnXCXnXnX",
"hXAXnXnXNXNX0Xd 2.u.Y.DX{ ) {.}.{.}.%XOX{.).L.K.J.g.j.P L G j 9 6 0 1 0 : & & O & O O . . + . - - - p >.w.M.xXJ.+.FXnXCXnXnXCXnX",
"NXNXnXNXnXNXaXs 2.i.Y.HX{ o.VXgXlXlXwXwX9X8X#X+XoXP.H.H.U I N 5 6 3 2 * , & & & + + & + + + % X o - p >.t.6.xXJ.@.KXCXnXnXCXnXnX",
"NXhXNXnXNXnXpXd 1.u.W.HXO.c gX;.v.n.Y.n.m.l.k.z.f.j.P P G l M 8 6 4 2 = = = = = = % = % @ @ @ $ o ; u ,.y.e.xXJ.$.AXCXCXCXNXCXnX",
"nXyXNXnXnXnXpXd 8.t.T.HXn ] kX3.B.~.m.N.N.n.z.h.f.d.s.A S B M 8 8 5 , = = = = @ $ $ @ @ # @ @ + o ; i >.y.5.xXJ.$.JXCXNXnXNXnXnX",
"nXyXnXnXnXnXpXd 9.y.T.DXO.] gX .( ( | `  .} } { ' m x v x B M 7 8 < , : * & O & & & % O % O + + o O e <.u.4.bXJ.*.LXNXCXnXCXnXCX",
"nXnXyXnXnXnXaXd a.q.W.fXB E U.G.) z.c.c.c.c.d.d.s.{ n z B Z M 7 5 < < : * & & & & O O % O . % + % ; i -.r.M.lXF.%.FXNXnXnXNXNXnX",
"yXnXyXjXBXBXfXt :.p.!.I.IXPX=Xg O.wXdXwX$X$X$X+XOXoXH.Z S Z M 8 4 4 > : , & & & & % % % % % @ @ o - u >.u.6.xXF.%.JXnXnXnXCXNXnX",
"NXnXyXyXjXBX0Xy 8.0.W.=XPXPXPX|.D BX@X}.[.).^.L.x.h.g.l b Z M 9 4 , : : * & & & % % % % + @ @ @ X - u >.u.4.vXD.%.JXmXnXnXNXnXCX",
"yXnXyXjXyXmXfXi 1.r.E..XPXPXMXS.x gX@X[.`.'.^.x.l.k.g.L Z Z M 9 6 : : : * & & O & O % % @ @ . @ X - u X.u.4.xXD.%.JXnXnXnXnXnXNX",
"yXCXyXyXBXmXfXi 1.A.E.E =XPXQ S.S lX@X`.`.Z.V.V.k.h.g.A S S M 8 6 2 > : * * & & % & % % + % @ @ X - u X.u.4.vXD.%.JXnXnXCXNXnXNX",
"yXCXyXjXmXmXfXf ,.r.E.E *XPXQ S.B lX@X`.`.Z.V.^.l.k.h.Z Z B M 5 6 3 > , * & & & % % % % % @ @ . X - u X.r.4.xXD.%.JXmXnXNXnXnXnX",
"yXnXyXhXBXBX0XD ,.A.E.W  XMX XS.l bX@X`.`.Z.C.V.l.k.f.v S Z k 8 6 4 4 * * * & & & % & @ % % @ @ X - u X.u.4.xXD.%.JXmXnXnXnXnXnX",
"yXyXyXhXnXmXfXi 1.8.E.W ! 3XQ S.l cX@X`.`.Z./.n.l.k.h.v Z Z M 8 4 2 > 4 , & & & % & % % % + @ @ X - u X.u.4.xXD.%.KXCXnXnXNXNXnX",
"yXmXyXjXNXmX0Xh 2.t.E.S.UXPX3XE A wX@X[.`._.C.l.l.z.h.v S B j 6 4 3 > > * & & & % O & @ @ @ % @ X - t X.u.4.xXD.%.JXCXNXnXnXCXNX",
"yXnXyXhXNXmXfXf :.u.E.C MXMXI.g n jX@X`.Z._./.^.G.k.g.b S B M 8 6 : > : * & & & % % % % @ . % @ X - u X.u.4.lXD.%.JXmXNXCXNXnXnX",
"yXmXyXyXnXmX0Xi 0.0./.W 4 C > o.o.lX@X'.`._./.n.l.h.h.b Z B j 6 4 3 > > & * & & & % % % % % @ @ $ - u X.u.M.xXD.%.KXnXnXnXNXmXAX",
"yXnXyXyXhXNXfXf :.w.R.GXC j :X;.[ sX@X'.'._.C.R.l.k.h.b Z Z M 6 6 3 > : & & & & & % X % % @ + @ @ - u X.u.M.xXD.&.FXCXNXnXnXnXnX",
"yXyXyXnXnXyXpXd 1.t.T.DXO.n vX;.| dX@X'.`._.m.R.l.z.h.v b V j 9 6 > : : & & & & & % % % % @ . @ o ; i >.t.6.xXJ.&.FXCXnXnXnXnXnX",
"yXnXyXnXyXyXpXd 1.t.T.DX=.] dX-. .dX@X'._._.C./.l.k.h.v b l j 9 8 5 3 : , & & & & % % @ % % @ + $ ; i >.y.6.xXJ.&.FXNXnXNXnXnXnX",
"yXyXyXmXnXyXpXy 8.q.T.DX[ o.lX;.` wX@X'.'./.C.V.D.k.F.v Z B j 9 5 > : , * & & & % & & % + @ % @ # ; i >.t.b.xXJ.&.FXnXnXnXnXnXNX",
"hXCXnXnXnXyXpXd 1.q.T.HXo.] lX..[ dX%X'.'.).C.V.k.F.h.v B B j 8 6 5 3 , * * & & & % % % % @ @ + # O i >.t.6.xXJ.&.FXNXnXnXnXnXnX",
"yXhXyXnXnXyX0Xd 8.t.T.DX[ o.gX..} sXdXwX8X$X+X+XOXP.H.A Z V M 9 5 > 3 , & & & & % % % % % @ % + # ; i >.t.6.vXJ.&.FXnXNXCXnXnXCX",
"yXCXyXnXmXyXpXd 8.9.T.DX=.[ gX;.) ).L.).^.L.L.H.S.g.Y z B N M 8 9 3 : , * & & & & % % % + @ % + # + i >.t.6.xXJ.&.FXnXnXNXNXnXNX",
"nXyXyXnXyXyXaXd 1.t.T.DXO.D gX .p d d f ' m m m x l l l V V M 8 5 5 3 : & * & & & % % % % % + + $ ; u <.t.5.xXJ.&.FXnXnXnXnXnXnX",
"yXyXnXnXnXyXpXd 8.t.T.DX{ { kXR.8X$X$X$X$X+XoXoXP.H.E L V N q 8 6 > 3 , * * & % & % X % % % @ @ $ . i >.t.b.xXJ.&.FXNXnXnXNXCXNX",
"yXyXuXmXnXyXpXy 1.q.T.HX] ] sXT.}.}.%X[.OXL.x.H.U I P L I C q 8 5 5 , * & & & & & % % % % @ . + $ ; i >.t.6.xXJ.&.FXCXnXNXCXNXnX",
"yXnXyXnXnXyXaXd 1.q.T.DX{ ] gX5.w.i.B.B.M.c.} T oXH.E E I N N 8 8 4 , , : & & & & % O % % % @ + # + u >.t.6.xXF.&.FXnXnXnXNXnXnX",
"yXyXnXnXnXyXpXy 8.q.T.DX{ ] wX5.B.N.N.e.3.| { j..XXXW W E N j 8 5 4 4 , * & & & & % % % + @ @ + # ; i X.t.6.xXJ.&.JXnXNXnXnXnXnX",
"hXyXnXmXnXnXpXd 1.t.T.cX{ ] kX2.q.B.N.N.3. .{ j.XX.XI J J q q 6 8 < , , & & & & & % % % @ @ + @ # ; u X.r.4.xXF.&.FXmXCXNXAXnXnX",
"nXyXyXmXmXnXpXd 8.q.T.cX{ ] sX3.B.i.N.m.M...} T H.U G G H N M 8 8 < < & * & & * & % % @ + @ @ @ @ - u X.u.4.vXD.@.ZXCXNXnXnXNXnX",
"nXhXNXmXmXCXpXd 1.t.T.DX] ] kX3.p.N.m.m.m.m.c.P T L I G G G 9 8 8 < 4 * , & & & % % % @ . @ + @ @ - u <.u.4.xXD.@.ZXCXNXnXnXAXNX",
"nXyXnXmXmXnXpXy 1.t.T.DX] o.kX;.`  ... .....d.s.A A L I G G M 8 8 < , * * & & % & % & % + % % @ $ - u X.u.4.bXD.@.ZXnXnXnXnXnXnX",
"nXyXnXnXmXuXpXd 1.r.W.GX#.] gX-.^ _ | | } | m n n S z l N j j 7 8 5 4 * * & * & % % & % @ @ @ @ @ - u X.u.4.xXD.@.ZXnXnXnXnXnXnX",
"nXnXnXyXnXzXpXy 1.r.R.LX=.] VXX. .$X9X$X$X#X+XoXP.P.J.L l V j 9 8 < 4 * & * & & & % % % @ + + @ @ - u X.u.4.xXD.@.ZXnXyXnXnXnXyX",
"NXnXnXnXNXuXpXs r.p.E.LXS S VX=.| sX$X%XOXOXOX).L.k.H.b b G k 7 8 < 4 * * * & O & % % % @ @ @ @ @ - u X.u.4.xXD.@.FXnXnXnXnXnXnX",
"nXnXnXnXnXhXaXi 1.1.].7XW U.H.$.] kX@X).).(.^.n.l.h.h.b Z l k 7 8 4 2 , * & & & % % & % % % + @ @ - u X.u.4.xXD.+.ZXnXnXyXnXnXnX",
"mXmXnXNXhXyXpXf <.A.E.U.KXPXMXb n dX@X[._._.Q.m.l.c.h.b Z l k k 8 < 2 3 & & & & = % % % % @ @ @ % - u X.u.4.lXD.+.ZXnXnXnXnXnXyX",
"nXnXnXnXhXyXpXd 2.i.E.:XPXUXPXS.x dX@X`.`.Z.m.m.l.k.h.b b l k 7 8 > 2 * , & & & & % % % % @ @ @ $ - u X.u.4.xXD.+.ZXuXNXnXyXnXnX",
"nXmXnXNXyXhXaXe i.1.W.I.MXPX=XS.A dX@X`.'.Z.C.n.l.k.h.b b V k 7 9 , 2 * & & & * & % X % % . @ @ % - u X.u.4.xXD.@.ZXmXnXnXnXnXnX",
"nXnXnXyXyXyXpXd 2.r.E.E *XIXQ S.m lX@X`.'.C.C.V.x.k.h.b b B k 7 9 > 2 2 & & & & & % % % % % @ @ @ - u X.u.4.xXD.%.ZXnXnXnXnXyXnX",
"nXmXzXuXjXyXpXd 2.u.E.! *XPX XE z lX@X'.`.'.C.V.x.h.g.n Z Z k j 8 3 > * * * & O & % % % @ + @ $ @ - u -.u.4.vXD.+.JXnXnXnXnXnXnX",
"zXuXyXjXyXjXfXy 7.u.E.W R 3XQ E c sX@X`.`._.C.V.F.F.h.v b l j 7 8 > > * * & & & % % % % % . @ . X - u >.u.4.vXD.%.JXnXnXnXnXnXnX",
"hXzXzXjXyXnXfXy 1.r.E.W *XIX*X|.] gX@X`.'.Z.V.x.k.k.h.v L l k 7 > > 5 , * & & & % & % + @ @ % @ X - u X.r.4.vXD.%.JXnXnXnXnXnXyX",
"yXnXzXjXjXyXfXt 1.8.!.W PXPX=XS { dX$XOXOXOXC.x.J.J.h.v b l k 7 9 > 3 : * & O & & & % % % % % @ X - u X.u.4.xXD.%.BXmXyXuXnXnXyX",
"nXnXzXjXyXyXeXi 8.r.E.C Q *XK g ] lXsXwX8X$X$X+XOXP.H.n Z B j 7 5 > 5 & * & & & % % % % @ @ % @ X - u X.u.4.lXD.%.ZXnXyXmXnXnXnX",
"nXnXyXhXyXnXfXy 1.r.!..X6 2 N D ) ..} d.d.d.d.s.P P n z Z B k 9 5 > > * : * & & @ % % % = % % @ X - u <.u.4.vXD.%.KXnXmXnXmXnXnX",
"nXmXyXyXuXNXfXy 8.9.R.LXZ S 0X;.` _ } } } } ' { n n b b l V j 9 5 > 3 , , = & & & & % % @ % % @ X - u >.i.3.vXk.&.AXmXnXNXNXyXnX",
"yXnXhXzXnXmXfXi 1.0.m.LXS S gX(.0XSXwXwX9X8X$X+XoXP.H.g.I l j 9 9 5 3 , * * & & & % % = % % @ @ = - u X.u.3.cXD.%.ZXnXnXnXnXnXnX",
"NXnXyXhXmXAXfXa :.q.m.HX#.] gX;.}.Y.(././.Y.x.x.h.g.j.P B l j 9 8 3 > * * & & & % & & % % % + $ # - u X.u.4.xXD.&.JXmXnXnXmXnXnX",
"nXnXhXhX1X2X<Xu e.q.m.HX=.[ gX4.v.n.m.T.n.n.k.g.j.j.T L b G j 9 5 5 : , 4 & & & = % % @ % % % @ @ - u X.u.4.vXD.o.1X1XiXnXAXnXyX",
"nXmXyX1X&X&X.Xi e.0.N.cX{ ] vXlXbXbXwXwX9X$X+X+XoXP.H.H.U I j 8 5 5 3 , , * & & & % % @ % % % @ X - u >.u.b.VXK.o.=X&X&X2XmXnXnX",
"yXCXuX;X&X1XXXg _ `  .L.) a f.f.k.k.k.k.D.k.h.g.j.P L L l M k 8 > , : & O % .   $               . - i _ `  .K.S S <X,X&X1XNXAXuX",
"nXyXuX;XXX:XXXA S $.o.%.+.+.+.#.&.d.f.f.f.h.f.g.U U E I I ! I J J J C H H H H H H C H H R F F F H B S $.o.o.|.S W :X.X&X2XNXNXyX",
"NXyXCXiXXX&X=X;X<X<X;X:X:X:X:X;X;X;X;XXX;X;X;X;X:X:X:X:X<X<X=X>X>X>X>X>X>X>X>X>X>X>X>X>X>X,X-X-X-X,X>X<X:X<X:X;X;X&X&X1XtXnXyXnX",
"AXyXyXCXrXiXiXmXrXrXrXiXeXeXtXeXrXrXzXrXrXuXtXtXeXeXtXtXtXtXtXtXeXMXrXtXrXtXtXrXrXtXtXtXrXrXrXrXMXrXrXrXrXrXrXrXnXmXeXuXNXnXyXNX"
};
