/* XPM */
static char *ZG9vcjQ_[] = {
/* columns rows colors chars-per-pixel */
"64 64 251 2 ",
"   c #0A0B02",
".  c #180F04",
"X  c #0F150C",
"o  c #091A0B",
"O  c #13140D",
"+  c #19110E",
"@  c #181407",
"#  c #0B1617",
"$  c #131514",
"%  c #191614",
"&  c #151914",
"*  c #1D1915",
"=  c #141218",
"-  c #1B1A19",
";  c #1C0E15",
":  c #330A06",
">  c #380804",
",  c #231C14",
"<  c #261A13",
"1  c #260D08",
"2  c #292116",
"3  c #2C2419",
"4  c #29251D",
"5  c #32261A",
"6  c #35291B",
"7  c #3A2D1C",
"8  c #352416",
"9  c #3D301F",
"0  c #352D22",
"q  c #3B3221",
"w  c #4A0604",
"e  c #550807",
"r  c #5A130A",
"t  c #551715",
"y  c #6E0502",
"u  c #660805",
"i  c #750204",
"p  c #7C0202",
"a  c #7C0C03",
"s  c #750008",
"d  c #790906",
"f  c #6B1A09",
"g  c #781509",
"h  c #6A1C12",
"j  c #731D13",
"k  c #442A1E",
"l  c #45351D",
"z  c #4E3A1D",
"x  c #49371C",
"c  c #563C1E",
"v  c #56381C",
"b  c #6D2315",
"n  c #742516",
"m  c #6F200F",
"M  c #443722",
"N  c #453823",
"B  c #4C3B24",
"V  c #483621",
"C  c #543D24",
"Z  c #583E25",
"A  c #563E28",
"S  c #4C3833",
"D  c #7B3A26",
"F  c #723430",
"G  c #3D4333",
"H  c #5A4025",
"J  c #554229",
"K  c #594229",
"L  c #544126",
"P  c #464437",
"I  c #5E4C34",
"U  c #674925",
"Y  c #684A26",
"T  c #674A29",
"R  c #6E4B2E",
"E  c #56514A",
"W  c #665945",
"Q  c #7A5D58",
"!  c #6B4544",
"~  c #786556",
"^  c #76644C",
"/  c #736E6E",
"(  c #840403",
")  c #830B03",
"_  c #880806",
"`  c #990003",
"'  c #940305",
"]  c #871108",
"[  c #881408",
"{  c #931412",
"}  c #A4121A",
"|  c #B9291C",
" . c #9B1C22",
".. c #813A25",
"X. c #843B2A",
"o. c #963638",
"O. c #8C2D2D",
"+. c #B53537",
"@. c #B32C2F",
"#. c #81241F",
"$. c #C9292A",
"%. c #D52A25",
"&. c #DB2F2E",
"*. c #D72A28",
"=. c #CE312C",
"-. c #C53227",
";. c #D9302D",
":. c #D2312C",
">. c #C73937",
",. c #DB3432",
"<. c #D83937",
"1. c #D82F30",
"2. c #E52E2B",
"3. c #EC2B2C",
"4. c #E52628",
"5. c #F52C2D",
"6. c #E3322C",
"7. c #E9342F",
"8. c #E92D32",
"9. c #F62B33",
"0. c #E43433",
"q. c #EA3433",
"w. c #E43B34",
"e. c #E5373A",
"r. c #EB353A",
"t. c #E53A3B",
"y. c #EA3C36",
"u. c #F53335",
"i. c #DA2421",
"p. c #A6433C",
"a. c #804734",
"s. c #DD443E",
"d. c #C23C45",
"f. c #8C554D",
"g. c #B85149",
"h. c #8D6956",
"j. c #A9655B",
"k. c #896F64",
"l. c #B2746C",
"z. c #DC4F44",
"x. c #DD4442",
"c. c #DB5046",
"v. c #DB5D4B",
"b. c #D75849",
"n. c #D1524B",
"m. c #E54946",
"M. c #E15F51",
"N. c #E2574B",
"B. c #DB624D",
"V. c #D86655",
"C. c #CC6554",
"Z. c #E4624E",
"A. c #E46253",
"S. c #E56A58",
"D. c #C67E73",
"F. c #D17264",
"G. c #E97764",
"H. c #F27E65",
"J. c #F87A6A",
"K. c #EF786F",
"L. c #7D8079",
"P. c #9B977E",
"I. c #97856D",
"U. c #B29177",
"Y. c #9E825B",
"T. c #C7816F",
"R. c #C68172",
"E. c #C88074",
"W. c #D18578",
"Q. c #F0866F",
"!. c #737A8D",
"~. c #979889",
"^. c #A59A84",
"/. c #B7998A",
"(. c #B09892",
"). c #99A489",
"_. c #AAA48C",
"`. c #B5A38A",
"'. c #AAA694",
"]. c #A8A997",
"[. c #B5A793",
"{. c #BAB59F",
"}. c #989EA4",
"|. c #B7B2AF",
" X c #CE9C8A",
".X c #D49E8E",
"XX c #D89D8D",
"oX c #D99C93",
"OX c #C09F90",
"+X c #CDA38C",
"@X c #D3A18C",
"#X c #CAA691",
"$X c #DCA494",
"%X c #DCA994",
"&X c #D6A796",
"*X c #CFB18D",
"=X c #E7A795",
"-X c #EFB795",
";X c #C5BCA7",
":X c #D9BEA9",
">X c #F2B4A2",
",X c #E79E8D",
"<X c #BDC6A9",
"1X c #C8CAAD",
"2X c #CCCCB1",
"3X c #D3CCB5",
"4X c #D3CEBA",
"5X c #DCCCB6",
"6X c #CAD3B8",
"7X c #D4D2BB",
"8X c #DAD6BD",
"9X c #DDDABD",
"0X c #D3D7B8",
"qX c #D0D1AF",
"wX c #E4D9BE",
"eX c #E6D6BD",
"rX c #FEDEB9",
"tX c #FED9B8",
"yX c #F3C8AC",
"uX c #FEE3BB",
"iX c #FEE9BE",
"pX c #FDE3B4",
"aX c #F4F2BE",
"sX c #B0BBC3",
"dX c #B9C8CF",
"fX c #D3DEC2",
"gX c #DDDCC3",
"hX c #DDDDC9",
"jX c #DBD7C6",
"kX c #D0CEDA",
"lX c #E1DBC4",
"zX c #E2DEC9",
"xX c #E5D8C5",
"cX c #F8DEC1",
"vX c #ECDDDA",
"bX c #D9E2C7",
"nX c #EEE5CA",
"mX c #E5E4C7",
"MX c #F2E5C5",
"NX c #FEECC5",
"BX c #F2E4C9",
"VX c #FFEDCA",
"CX c #FEE5C5",
"ZX c #FFF3CA",
"AX c #FFF8CC",
"SX c #FDF2C5",
"DX c #FFF8D7",
"FX c #FCFEFE",
"GX c #F7F9F9",
"HX c #EFEFEE",
"JX c #DAE4E6",
/* pixels */
"gXgXgXgXfX0XaXCX%X>X=X=X$X$X$X%X%X%X%X%X%X%X%X%X%X%X%X%X%X%X%X%X%X%X%X%X%X%X%X%X%X%X%X%X%X%X%X&X&X%X%X=X,X$X>XyXeXxXwXgXfXhXhXgX",
"gXgXbXgX9XeXqXa.e u i p i y y u y y s y y y y i y y y y y i y y y y y y y y y y y y y y y i i d i i i y g u r R :XMXlXgXjXfXgXbX",
"bX9X9XgXgXeX$Xe g a [ a ( ' ' ' ` ` ` ` ` ` ` ` ` ` ` ` ` ' ` ' ` ` ` ` ` ' ` ' ` ` ` ` ' ` ' _ ] _ ( { ) d n e U.cXxXgXfXhXbXgX",
"lXlXbXgXgXgX+Xf CXVXuXiXj ( $.u.9.r.r.r.e.q.r.q.q.7.q.q.0.7.e.q.q.w.7.7.7.7.7.w.<.q.q.r.e.r.$.>X>Xy p yXuXiXaXY D.cXxXxXfXzXgXhX",
"gXgXgXgXmX8XoXa Q.Q.=XrXg ' @.w.2.8.8.8.4.3.3.3.3.3.3.3.4.4.4.4.4.3.4.4.4.4.4.3.5.5.5.3.3.0.=.=XyXy i G.Q.W.SXD D.BXwXlXfXhXzXhX",
"bXgXgXgXgX7XoX( =.| G.tX{ i p.C.V.v.A.M.M.M.v.Z.M.M.A.B.M.Z.A.Z.Z.Z.Z.Z.Z.Z.Z.Z.v.N.N.v.v.M.C.-XyXe ) | | B.NXD E.MXeXhXfXhXhXhX",
"9XbX9XbXgXbX@X) x.=.Q.tXg d -XtXiXSXiXiXNXMXiXSXNXiXNXiXiXiXiXiXiXiXiXiXiXiXiXaXaXaXNXNXiXCXcXiX-Xu ( 6.w.z.SX..W.BXwXgXfXbXhXhX",
"gXgXgXgXbX0X$X( <.$.Q.NX[ ( ' _ y j f j n f f m f f f f j h f f f j h f j h j f j j h h n f m b n i ' 3.5.N.NX..D.BXgXbXfXhXzXjX",
"gXgXbXgXmXxXXXi z.=.G.tXa $.i.8.x.,XX.h n m n n j j b h h u r r r r e e w e w e w e w w w w w : > u ' 4.5.m.CXX.D.nX9XbXfXzXlXhX",
"9XgXgXlX9XwXXX) <.-.Q.pXg :.9.9.V.DXR v Z U c c Z C z x q q 7 5 8 < < < < * < + . . X o X + O @ . w s &.4.z.VX..R.mX9XbXfXlXxXzX",
"bXlXbX9XgXlX+Xa s.$.H.uXf -.e.e.C.DXU x Z c L L B B N V 0 0 0 4 4 4 * , & & & % ; + O # # = $ X O > s 1.6.z.VXR U.mX9XbXhXxXxXxX",
"gXgXgXgXgXwXXX) e.4.J.pXg =.8.e.C.DXU v H H L L L B V N q 0 6 5 4 4 , - - - & - % = = # # = $ o X 1 u :.;.c.SXD T.nX9XbXfXxXxXzX",
"gXgXbXgX9XwX@X_ 5.5.J.uXg 1.9.r.V.DXT z H Z Z C A B N N 7 7 7 7 2 2 , * * * * & = = # # # # $ o o 1 e :.6.c.VXD D.nX9XhXfXzXxXzX",
"bXwXgXgXgXgX@Xg 0.i.J.NXg =.9.9.V.DXT z c Z K A B B V N l 7 8 8 8 2 , < , @ @ & X O $ $ = ; ; @ . w p ;.3.c.VX..D.BXwXgXfXzXxXxX",
"gXgXgXgXgXfX+Xa w.*.K.(.R o.+.8.V.DXU v L K Z Z A B V N 9 7 6 6 2 2 , , * * & & $ O O = = ; ; O @ > p &.3.z.VX..E.MXgXgXfXzXjXlX",
"gXgXlXlXhXjX&Xp y.0.g.'.FXvX! x.B.AXY z J J A Z v B N N 9 7 6 4 2 2 , , * + % % $ $ + + $ # = = X : i &.2.z.VX..E.MXgXgXfXzXlXhX",
"gX9XgXgXlXgX&Xp 7.t.O.HXGXFXU.$.V.AXU z A J A C c c l N 9 7 6 5 3 2 , , , % % - $ O + + $ = = $ X : i 1.2.c.VX..E.nX9XgXfXhXlXgX",
"lXgXgXgXbXzX.X] w.t.O.jXFXGXk.d.V.AXU z K K C Z c B l N 9 7 6 6 3 2 , * % % $ $ $ $ + + $ = = = X : s 1.2.c.VX..E.nXwXbXbXhXlXhX",
"bXlXgXgXgXzX X_ w.w.o./ HXsX~ +.V.AXU z K J A Z c B l q 9 7 6 4 3 2 , , * % $ % $ O + + $ # = = O : s &.3.c.VX..R.nX9XhXfXzXgXgX",
"lXgXgX9XgXgX$X) w.<.o./ GX|.Q +.F.DXU z J K K Z c l L L 9 7 6 6 3 2 < , , % - & $ $ + $ $ = = $ X : s &.6.c.VX..R.nX9XbXfXhXxXgX",
"gX9XgXgXzXjX.X( r.<.O./ kX}.Q @.F.AXY z J J A C c z z q 9 7 6 5 2 2 , , * % % % $ X + + # $ = $ X : s 1.3.c.VX..R.MX9XgXbXbXzXgX",
"gXgXgXmXgXzX@X) 0.t.o.E }.}.k.d.V.AXY x J J Z C c L l N 9 7 6 4 3 2 , , * % % % $ O + + # = = = X : s &.2.c.VX..R.nX9XhXfXhXxXgX",
"gXgXgXlXhXhX.X) 8.e. .}.HXkXk.$.V.AXU z K J K C c z 9 N 9 9 6 6 3 2 2 * * % % & $ $ + % $ = = $ X : s 1.2.z.VX..R.nXgXhXfXzXjXhX",
"gXgX9XlXgXhX.X) r.r.o.k.HX|.F $.G.AXU z J K A Z H z N N 9 7 6 6 3 2 , , % % - & $ O + + $ = = = X : i ,.2.z.VX..T.nX9XbXfXhXxXgX",
"gXgXgXgXgXhX+Xp y.&.g.8 S k t m.v.AXU z J J L C Z B l M 9 7 6 4 3 2 2 * * % % % $ $ + + $ = = $ O : s &.2.c.VX..R.nXgXgXbXmXgXgX",
"gXwXgXgXgXgX&Xp q.*.,X;Xk F g.*.S.ZXU z J J A C c c V M 9 7 6 5 3 2 , * * % % & $ O @ % X = = = O : s &.2.c.VX..R.nX9XlXfXhXjXgX",
"gXgXgXgXgXlX@X) r.%.J.tXg >.<.u.B.AXU z K J Z Z c c V M 9 7 6 5 3 2 , , * % & - $ O + + $ # = = X : s &.2.c.VX..R.nX9XbXfXhXxXgX",
"gXlXgXgXhXxXXXa e.*.H.tX] :.0.u.B.ZXU z J K A Z c C N q 9 7 6 5 3 2 2 * * % % $ $ $ O + $ = = = X : i ,.3.c.VX..T.BX9XbXfXzXlXhX",
"gXgXwXgXlXlXoXa e.%.H.tX[ =.,.u.Z.AXU z L K C Z c z l N q 7 6 5 3 2 , , * + - & $ O + + $ $ = = X : i 1.2.c.VX..R.nX9XbXfXhXhXhX",
"gXlXbXlXlXlXoXa 0.%.H.rX] =.0.9.B.AXU z L J J Z c B B q 9 7 6 5 3 2 , * * % % % $ $ + + $ = = $ X : s ,.3.z.VX..R.nX9XgXbXhXlXgX",
"bXgXlXgXlXlXXXa e.%.H.rX] :.0.u.B.AXU z J J K Z c c N N 9 7 6 5 3 2 , , * % & % $ O + + $ # = = O : s &.6.z.VX..R.BX9XgXfXzXxXgX",
"wXgXgXgXwXlX@X) e.%.H.tX] =.0.u.B.ZXY z J J J Z c C l M 9 7 6 5 3 2 , , * % % & $ O + $ $ = = $ O : s &.2.c.VX..R.nX9XhXfXzXhXgX",
"gXgXgXgXlXlX.X) 0.%.H.rX[ =.0.u.Z.SXY x K B H Z c B B q 7 7 6 5 3 2 , , * % % $ & X + + $ $ = $ X : s ,.2.c.VX..R.nX9XgXbXmXhXhX",
"gXlXgXgXlXlX.Xa t.*.H.rX_ =.0.u.B.AXR L I J C Z c z N N 9 7 6 5 3 2 , , * % % % $ $ + + # = = = X : i &.3.z.VX..R.nXwXbX0XbXxXgX",
"gXgXlXgXlXlX@Xa t.*.H.pX[ =.0.q.B.SXT l J A H H c z N M 9 7 6 5 3 2 , , * % % & $ X + + $ = = $ O : s &.2.c.SX..R.nX9XhXfXzXjXgX",
"9XlXgXgXlXlXXXa e.%.H.pX_ =.0.u.B.AX*X*X`.k.I H v z V V 7 7 6 5 3 2 , , * % - $ $ $ + + # & = = X : s &.2.z.VX..R.BX9XbXfXzXlXhX",
"gXgXbXwXmXwX.Xa e.%.H.tX[ =.6.u.B.SXpXMX5X`.T H Z z l l 9 7 6 5 3 2 , , * % % % & X + + $ = = = X : s &.3.c.VX..E.nX9XgXfXzXhXgX",
"gXgXgXgXgXwX+Xd e.*.H.pX[ %.6.q.V.iXY.h.k.I.I H Z z N 9 7 7 6 5 3 2 , * * % % % $ $ + + $ = = $ X : s &.2.z.iX..T.nX9X9XfXzXxXlX",
"gXlXgXlXwXeX+Xg r.*.H.pX[ i.5.y.B.AXU.I.k.^ K Z c B x M 9 7 6 5 3 2 , , * % $ % $ X + + # $ = = X : s &.6.z.NX..T.MX9XmXbXlXxXgX",
"gXgX9XhXlXwX Xg r.*.J.uX[ 6.5.u.B.AXR L B J H H c z N N 9 7 6 5 3 2 , , * % % % $ $ + + # = = $ X : s &.2.z.VXD T.MXwXbX0XxXxXgX",
"gXbX9XgXlXwX@Xa r.4.J.cX_ *.5.5.B.aXU z z L L L c z l M 9 9 6 5 3 2 , , * % % $ % O + + X = = = X > i &.2.z.iXD T.MX9X9XbXmXeXwX",
"gXwXgXgXwXwX@Xa r.4.J.cX] 1.7.5.Z.AXY c L I K K Z z N N 9 7 6 5 3 2 , * * % % % $ $ O + $ = = = X : i &.2.z.SX..T.MX9X9XfXmXlX9X",
"gXgXlXgXlXwX@Xa r.4.J.cXf >.,.9.Z.SXY z B L H H c z B N 9 7 6 5 3 2 , , * % % - $ $ + + $ # = $ X : i &.2.z.VX..T.MX9XgXgXzXlXwX",
"gXgX9XhXgX7X*Xd t.*.K.cXt p.>.y.Z.AXY c J J C H c B l q 9 7 6 3 3 2 , , * * $ $ $ O + % = # = = O : i ;.2.z.NX..T.MX9XgXfXlXlXgX",
"gXlXgXjXgXgX#Xy t.,.G.P.k.j.p.8.B.AXY z J J J Z c c M N 9 7 6 3 3 2 , , * % $ % $ O + + $ = = = X : s &.2.z.iX..D.MX9XgXfXmXxXwX",
"gX8XgXgXgXbX+Xa e.w.g.;XGXHXj.$.B.AXY x J J J Z Z z l M 9 7 6 6 3 2 , , * % - % $ O + + $ $ = $ X : i &.2.z.SX..D.aXwXgXfXlXlXwX",
"gX9XgXgX8XfX+X] 0.<.O.GXFXFX/.} G.AXU x K J Z Z c c N q 9 7 6 5 3 2 , , * % % % $ X + + # = = = X : s &.2.z.NXD T.uX9XgXbXxXlXwX",
"gXgX9XgXgXgXXX) 8.r.o.|.GXJXQ n.V.AXU z J K K C c B z M 9 7 6 5 3 2 , , * % % $ $ O + % X # = = X : s &.2.z.NXD T.MX9XmX0XlXlXgX",
"gX9XgXgXgX8X@X_ y.0.o./ GXsXk.@.S.AXT z J J C Z Z B l M 9 7 5 5 3 2 , , * % $ - $ O + + $ # = $ X : s &.2.z.VX..T.MXwXgXfXzXgXlX",
"jX9XgXgXgXbX X( w.<.o.!.GXsXQ @.S.SXT z J J K H c c V M 9 7 6 5 3 2 , * * % % % $ $ + + $ = = = X : p :.6.z.VXD D.nX9X9X0XmXwXgX",
"9XgX8XlXgXfX@X' w.<.o.E !.}.k.@.B.AXU z J J K C c B N M 9 7 6 5 3 2 < , * % % $ $ O + + $ # = $ X : i &.6.z.VX..D.nXgXgX0XlXjX9X",
"gXgXgXgXhXhXoX( 6.s.o./ kXsXW +.G.AXU z J J K C c c N q 9 7 6 5 3 2 , , , % - $ $ O + + $ # = = X : i ;.0.c.VXX.E.nXjXhXbXlXgXwX",
"gXgXgXgXgXhXoX( r.d.O.;XGXvXQ @.V.AXY z K J A Z c c l M q 7 6 5 3 2 , , * % % & $ X % + $ # = = X : i ;.2.z.VXD D.nXgXgXbXlXlXlX",
"gXjX9XgXgXjXoX_ r.1.o.S }.k.F d.C.AXY z J J K Z c B B q 9 9 6 3 3 2 , * * % % % $ O + ; $ = = = X : i ;.6.z.VX..D.nX8XgX0XbXwXmX",
"9XgXgXgXjXbXoX( r.e.C.S e t j <.V.AXU z J J Z Z c B z N 9 7 6 5 3 2 , , * * % % $ $ + O $ # = = X : i ;.2.c.VX..D.nXgXgXfXlX8XgX",
"8XzXlXgXlXjX+Xa e.$.K.xXj o.n.8.B.AXU z J J C Z c c l M 9 7 6 5 3 2 2 , * % - $ $ O + + $ = = $ X : s ,.&.c.VXX.D.zXmX8XbX8XlXwX",
"gXgX8XgXgX8X#Xd 0.%.Q.uXa >.*.u.B.AXU z H L J Z c z B q 9 7 6 5 3 2 2 - * * - % $ X + + $ $ = $ X : s ,.2.c.VXX.D.vX8X8XbX8XlXlX",
"gX7XjXmXhXhX.Xd 6.%.H.uX] :.q.9.B.AXU z L L H J c L N N 9 7 6 5 3 2 2 , * * - $ $ $ + + # $ = = X : s ,.2.c.VXX.D.nX8XgXbX8XlXwX",
"8XgXzX3X{.{.l.g 6.%.H.pX] %.y.4.V.AXU z L J L H c B B q 7 7 6 5 3 2 , , * % % $ $ O + % $ # = = X : i 1.6.z.CXX.j.;X{.1XbX9XwXgX",
"8XzX4X^.P.^.l.] w.,.Q.uX] :.e.y.V.AXY z K J K H c c z q 9 7 6 6 3 2 , , , * % - $ O O % X = = $ X : i ;.6.c.CXD j.^.P._.6XlXlX9X",
"8XmX1XP.^./.l.u  .{ p.g.' *.e.,.V.DXI l B L B A B l l 9 4 4 3 2 < @ + @ + .     X         #       1 e } }  .j.j f./.^.P.<XbX0XbX",
"gXhX6X^.P./.l.F D D ....O.p.n.n.l.wX~ ~ W W W W I W I W I E E P P E P P P P P P q G G G G G q S S S ! F o.F f.F h.#X^.P.1XbXbXhX",
"8XgXgX;X_.).).).]._.{.U.`.U./.U.U._.^.[._._.`._._.[.].[.'.'.'.'.'.'.].].'.].'.'.].].].].].}.].'.'.(.(.OX[./.`.'.[./._.{.7XmXgXhX",
"gXgXgXgX6X0X6X0X6XqXqXqXqXqX0XqX5X2X8X2X5X2X8X3X3X3X7X0X7X4X4X4X7X7X4X4X7X4X7X4X4XjX6X7X6X6X2X3XjX5X5XfX6X6X6X0X1X2X3XgXlXjX9XbX"
};
